<svg width="24" height="24" viewBox="0 0 24 24" fill="none" xmlns="http://www.w3.org/2000/svg">
<path d="M11.1149 4.66701C11.1149 4.77811 11.093 4.88812 11.0505 4.99076C11.0079 5.09341 10.9456 5.18667 10.8671 5.26523C10.7885 5.34379 10.6952 5.4061 10.5926 5.44862C10.49 5.49113 10.3799 5.51301 10.2689 5.51301C10.1578 5.51301 10.0477 5.49113 9.9451 5.44862C9.84246 5.4061 9.7492 5.34379 9.67064 5.26523C9.59208 5.18667 9.52976 5.09341 9.48725 4.99076C9.44473 4.88812 9.42285 4.77811 9.42285 4.66701C9.42285 4.44264 9.51198 4.22746 9.67064 4.0688C9.82929 3.91015 10.0445 3.82101 10.2689 3.82101C10.4932 3.82101 10.7084 3.91015 10.8671 4.0688C11.0257 4.22746 11.1149 4.44264 11.1149 4.66701ZM13.6539 5.51301C13.8782 5.51301 14.0934 5.42388 14.2521 5.26523C14.4107 5.10657 14.4999 4.89139 14.4999 4.66701C14.4999 4.44264 14.4107 4.22746 14.2521 4.0688C14.0934 3.91015 13.8782 3.82101 13.6539 3.82101C13.4295 3.82101 13.2143 3.91015 13.0556 4.0688C12.897 4.22746 12.8079 4.44264 12.8079 4.66701C12.8079 4.89139 12.897 5.10657 13.0556 5.26523C13.2143 5.42388 13.4295 5.51301 13.6539 5.51301Z" fill="white"/>
<path fill-rule="evenodd" clip-rule="evenodd" d="M6.35398 0.469992C6.42363 0.400298 6.50633 0.34501 6.59735 0.307289C6.68838 0.269568 6.78595 0.250153 6.88448 0.250153C6.98301 0.250153 7.08058 0.269568 7.1716 0.307289C7.26263 0.34501 7.34533 0.400298 7.41498 0.469992L8.64298 1.69699C9.61512 1.11744 10.7262 0.812284 11.858 0.813993H12.065C13.24 0.813993 14.339 1.13599 15.28 1.69699L16.508 0.469992C16.6502 0.337512 16.8382 0.265389 17.0325 0.268817C17.2268 0.272246 17.4122 0.350958 17.5496 0.488371C17.687 0.625784 17.7657 0.811169 17.7692 1.00547C17.7726 1.19977 17.7005 1.38782 17.568 1.52999L16.477 2.62199C17.5461 3.67258 18.2035 5.07142 18.33 6.56499C18.5453 6.49299 18.773 6.45633 19.013 6.45499C19.5858 6.45499 20.1352 6.68256 20.5403 7.08764C20.9454 7.49272 21.173 8.04212 21.173 8.61499V13.692C21.1732 14.0323 21.093 14.3679 20.9389 14.6713C20.7848 14.9747 20.5612 15.2375 20.2863 15.4381C20.0114 15.6387 19.693 15.7715 19.357 15.8257C19.021 15.8799 18.677 15.854 18.353 15.75V17.615C18.353 18.528 17.908 19.336 17.224 19.837V21.307C17.224 21.9547 16.9667 22.5758 16.5087 23.0337C16.0508 23.4917 15.4296 23.749 14.782 23.749C14.1343 23.749 13.5132 23.4917 13.0552 23.0337C12.5973 22.5758 12.34 21.9547 12.34 21.307V20.365H11.583V21.308C11.583 21.9557 11.3257 22.5768 10.8677 23.0347C10.4098 23.4927 9.78864 23.75 9.14098 23.75C8.49332 23.75 7.87219 23.4927 7.41422 23.0347C6.95626 22.5768 6.69898 21.9557 6.69898 21.308V19.837C6.34929 19.5816 6.06487 19.2472 5.86885 18.8611C5.67284 18.475 5.57078 18.048 5.57098 17.615V15.75C5.24694 15.854 4.90291 15.8799 4.56694 15.8257C4.23097 15.7715 3.91256 15.6387 3.63766 15.4381C3.36276 15.2375 3.13916 14.9747 2.98507 14.6713C2.83098 14.3679 2.75077 14.0323 2.75098 13.692V8.61499C2.7509 8.27279 2.83213 7.93546 2.98797 7.63081C3.14382 7.32615 3.36982 7.06288 3.64735 6.86268C3.92489 6.66249 4.24602 6.5311 4.58429 6.47935C4.92255 6.42759 5.26828 6.45694 5.59298 6.56499C5.71948 5.07142 6.37686 3.67258 7.44598 2.62199L6.35398 1.52999C6.21353 1.38937 6.13464 1.19874 6.13464 0.999992C6.13464 0.801242 6.21353 0.610618 6.35398 0.469992ZM7.31898 7.95499C7.25302 7.95552 7.18994 7.98209 7.14349 8.02892C7.09704 8.07575 7.07098 8.13903 7.07098 8.20499V17.615C7.07097 17.9456 7.20198 18.2628 7.43532 18.4971C7.66866 18.7314 7.98532 18.8637 8.31598 18.865H15.607C15.9376 18.8637 16.2543 18.7314 16.4876 18.4971C16.721 18.2628 16.852 17.9456 16.852 17.615V8.20499C16.852 8.13903 16.8259 8.07575 16.7795 8.02892C16.733 7.98209 16.6699 7.95552 16.604 7.95499H7.31898ZM16.606 6.45499H16.809C16.6519 5.3082 16.0849 4.25708 15.2128 3.49601C14.3407 2.73493 13.2225 2.3154 12.065 2.31499H11.858C10.7005 2.3154 9.58228 2.73493 8.71018 3.49601C7.83807 4.25708 7.27105 5.3082 7.11398 6.45499H16.606ZM13.84 21.308V20.365H15.724V21.308C15.724 21.4317 15.6996 21.5542 15.6523 21.6685C15.6049 21.7828 15.5355 21.8866 15.4481 21.9741C15.3606 22.0616 15.2568 22.1309 15.1425 22.1783C15.0282 22.2256 14.9057 22.25 14.782 22.25C14.6583 22.25 14.5358 22.2256 14.4215 22.1783C14.3072 22.1309 14.2034 22.0616 14.1159 21.9741C14.0284 21.8866 13.959 21.7828 13.9117 21.6685C13.8643 21.5542 13.84 21.4317 13.84 21.308ZM8.31398 20.365H10.083V21.308C10.083 21.5578 9.98373 21.7974 9.80707 21.9741C9.63041 22.1507 9.39081 22.25 9.14098 22.25C8.89114 22.25 8.65154 22.1507 8.47488 21.9741C8.29822 21.7974 8.19898 21.5578 8.19898 21.308V20.365H8.31398ZM19.013 14.353C18.8383 14.353 18.6707 14.2837 18.547 14.1604C18.4233 14.037 18.3535 13.8697 18.353 13.695V8.61199C18.3534 8.43695 18.4233 8.26923 18.5473 8.14574C18.6088 8.08459 18.6816 8.03614 18.7618 8.00316C18.8419 7.97017 18.9278 7.9533 19.0145 7.95349C19.1011 7.95369 19.1869 7.97096 19.2669 8.00431C19.3469 8.03766 19.4196 8.08644 19.4807 8.14786C19.5419 8.20929 19.5903 8.28216 19.6233 8.36231C19.6563 8.44246 19.6732 8.52832 19.673 8.61499V13.692C19.673 13.867 19.6034 14.0349 19.4797 14.1587C19.3559 14.2825 19.188 14.353 19.013 14.353ZM5.56998 8.60999C5.56945 8.43495 5.4994 8.26729 5.37525 8.14389C5.2511 8.02049 5.08302 7.95146 4.90798 7.95199C4.73293 7.95252 4.56527 8.02257 4.44187 8.14672C4.31847 8.27087 4.24945 8.43895 4.24998 8.61399V13.691C4.24931 13.866 4.31821 14.0342 4.44152 14.1584C4.56482 14.2827 4.73243 14.3528 4.90748 14.3535C5.08252 14.3542 5.25066 14.2853 5.3749 14.162C5.49914 14.0386 5.56931 13.871 5.56998 13.696V8.60999Z" fill="white"/>
</svg>
