<svg width="24" height="24" viewBox="0 0 24 24" fill="none" xmlns="http://www.w3.org/2000/svg">
<path d="M3 6C3 4.93913 3.42143 3.92172 4.17157 3.17157C4.92172 2.42143 5.93913 2 7 2H9.5C9.76522 2 10.0196 2.10536 10.2071 2.29289C10.3946 2.48043 10.5 2.73478 10.5 3V20C10.5 20.2652 10.3946 20.5196 10.2071 20.7071C10.0196 20.8946 9.76522 21 9.5 21H7C5.93913 21 4.92172 20.5786 4.17157 19.8284C3.42143 19.0783 3 18.0609 3 17V6ZM21 7C21 5.93913 20.5786 4.92172 19.8284 4.17157C19.0783 3.42143 18.0609 3 17 3H14C13.7348 3 13.4804 3.10536 13.2929 3.29289C13.1054 3.48043 13 3.73478 13 4V21C13 21.2652 13.1054 21.5196 13.2929 21.7071C13.4804 21.8946 13.7348 22 14 22H17C18.0609 22 19.0783 21.5786 19.8284 20.8284C20.5786 20.0783 21 19.0609 21 18V7Z" stroke="white" stroke-width="2"/>
<path d="M8 16.25C8 15.5596 7.44036 15 6.75 15C6.05964 15 5.5 15.5596 5.5 16.25C5.5 16.9404 6.05964 17.5 6.75 17.5C7.44036 17.5 8 16.9404 8 16.25Z" fill="black"/>
<path d="M18.25 8.25C18.25 7.55964 17.6904 7 17 7C16.3096 7 15.75 7.55964 15.75 8.25C15.75 8.94036 16.3096 9.5 17 9.5C17.6904 9.5 18.25 8.94036 18.25 8.25Z" fill="black"/>
<path d="M7.5 8.5H6M17 14V17M15.5 15.5H18.5" stroke="white" stroke-width="2" stroke-linecap="round" stroke-linejoin="round"/>
</svg>
