<svg width="24" height="24" viewBox="0 0 24 24" fill="none" xmlns="http://www.w3.org/2000/svg">
<path fill-rule="evenodd" clip-rule="evenodd" d="M10 5.25801L5 5.88301V11H10V5.25801ZM12 5.00801V11H19V4.13301L12 5.00801ZM10 13H5V18.117L10 18.742V13ZM12 18.992V13H19V19.867L12 18.992ZM3 5.88201V18.117C2.99989 18.6046 3.17789 19.0754 3.50052 19.4409C3.82316 19.8065 4.26821 20.0416 4.752 20.102L19.314 21.922C19.525 21.9484 19.7392 21.9296 19.9424 21.8669C20.1456 21.8041 20.3331 21.6989 20.4926 21.5582C20.652 21.4175 20.7797 21.2445 20.8672 21.0507C20.9547 20.8569 20.9999 20.6467 21 20.434V3.56601C20.9999 3.35336 20.9547 3.14316 20.8672 2.94934C20.7797 2.75551 20.652 2.58251 20.4926 2.4418C20.3331 2.30108 20.1456 2.19588 19.9424 2.13316C19.7392 2.07044 19.525 2.05164 19.314 2.07801L4.752 3.89801C4.26821 3.95847 3.82316 4.19357 3.50052 4.55911C3.17789 4.92465 2.99989 5.39446 3 5.88201Z" fill="white"/>
</svg>
